<mxfile host="app.diagrams.net" modified="2024-04-02T03:39:38.866Z" agent="Mozilla/5.0 (X11; Ubuntu; Linux x86_64; rv:123.0) Gecko/20100101 Firefox/123.0" etag="wy94TmK2T0THT0NSLNrB" version="24.2.1" type="device">
  <diagram name="Page-1" id="c4acf3e9-155e-7222-9cf6-157b1a14988f">
    <mxGraphModel dx="97" dy="519" grid="1" gridSize="10" guides="1" tooltips="1" connect="1" arrows="1" fold="1" page="1" pageScale="1" pageWidth="850" pageHeight="1100" background="none" math="0" shadow="0">
      <root>
        <mxCell id="0" />
        <mxCell id="1" parent="0" />
        <mxCell id="UPGJ15EwpdqwtSzkW7iJ-1" value="" style="shape=corner;whiteSpace=wrap;html=1;rotation=-180;dx=250;dy=273;" vertex="1" parent="1">
          <mxGeometry x="1430" y="259" width="850" height="623" as="geometry" />
        </mxCell>
        <mxCell id="La93wDOkN0sHbDGJkP_w-3" value="Back-end" style="shape=umlFrame;whiteSpace=wrap;html=1;rounded=0;shadow=0;comic=0;labelBackgroundColor=none;strokeWidth=1;fontFamily=Verdana;fontSize=10;align=center;width=70;height=36;" parent="1" vertex="1">
          <mxGeometry x="1780" y="289" width="130" height="200" as="geometry" />
        </mxCell>
        <mxCell id="La93wDOkN0sHbDGJkP_w-4" value="&lt;div&gt;Front-end&lt;/div&gt;" style="shape=umlFrame;whiteSpace=wrap;html=1;rounded=0;shadow=0;comic=0;labelBackgroundColor=none;strokeWidth=1;fontFamily=Verdana;fontSize=10;align=center;width=70;height=36;" parent="1" vertex="1">
          <mxGeometry x="1480" y="289" width="160" height="200" as="geometry" />
        </mxCell>
        <mxCell id="La93wDOkN0sHbDGJkP_w-5" value="DB NoSQL" style="shape=umlFrame;whiteSpace=wrap;html=1;rounded=0;shadow=0;comic=0;labelBackgroundColor=none;strokeWidth=1;fontFamily=Verdana;fontSize=10;align=center;width=80;height=36;" parent="1" vertex="1">
          <mxGeometry x="1770" y="628" width="160" height="200" as="geometry" />
        </mxCell>
        <mxCell id="La93wDOkN0sHbDGJkP_w-6" value="Kafka" style="shape=umlFrame;whiteSpace=wrap;html=1;rounded=0;shadow=0;comic=0;labelBackgroundColor=none;strokeWidth=1;fontFamily=Verdana;fontSize=10;align=center;width=65;height=30;" parent="1" vertex="1">
          <mxGeometry x="1450" y="628" width="160" height="200" as="geometry" />
        </mxCell>
        <mxCell id="La93wDOkN0sHbDGJkP_w-7" value="Dashboard UI" style="shape=umlFrame;whiteSpace=wrap;html=1;rounded=0;shadow=0;comic=0;labelBackgroundColor=none;strokeWidth=1;fontFamily=Verdana;fontSize=10;align=center;width=90;height=35;" parent="1" vertex="1">
          <mxGeometry x="2070" y="624" width="160" height="200" as="geometry" />
        </mxCell>
        <mxCell id="La93wDOkN0sHbDGJkP_w-8" value="DB SQL" style="shape=umlFrame;whiteSpace=wrap;html=1;rounded=0;shadow=0;comic=0;labelBackgroundColor=none;strokeWidth=1;fontFamily=Verdana;fontSize=10;align=center;width=70;height=36;" parent="1" vertex="1">
          <mxGeometry x="2060" y="276" width="180" height="200" as="geometry" />
        </mxCell>
        <mxCell id="La93wDOkN0sHbDGJkP_w-11" style="edgeStyle=orthogonalEdgeStyle;rounded=0;orthogonalLoop=1;jettySize=auto;html=1;entryX=0;entryY=0.484;entryDx=0;entryDy=0;entryPerimeter=0;" parent="1" source="La93wDOkN0sHbDGJkP_w-10" target="La93wDOkN0sHbDGJkP_w-6" edge="1">
          <mxGeometry relative="1" as="geometry">
            <Array as="points">
              <mxPoint x="1330" y="725" />
              <mxPoint x="1330" y="725" />
            </Array>
          </mxGeometry>
        </mxCell>
        <mxCell id="La93wDOkN0sHbDGJkP_w-12" style="edgeStyle=orthogonalEdgeStyle;rounded=0;orthogonalLoop=1;jettySize=auto;html=1;" parent="1" edge="1">
          <mxGeometry relative="1" as="geometry">
            <mxPoint x="1610" y="728.9999999999999" as="sourcePoint" />
            <mxPoint x="1773" y="729" as="targetPoint" />
            <Array as="points">
              <mxPoint x="1773" y="729" />
            </Array>
          </mxGeometry>
        </mxCell>
        <mxCell id="La93wDOkN0sHbDGJkP_w-15" style="edgeStyle=orthogonalEdgeStyle;rounded=0;orthogonalLoop=1;jettySize=auto;html=1;entryX=0;entryY=0.505;entryDx=0;entryDy=0;entryPerimeter=0;" parent="1" source="La93wDOkN0sHbDGJkP_w-4" target="La93wDOkN0sHbDGJkP_w-3" edge="1">
          <mxGeometry relative="1" as="geometry" />
        </mxCell>
        <mxCell id="La93wDOkN0sHbDGJkP_w-24" value="" style="ellipse;whiteSpace=wrap;html=1;aspect=fixed;" parent="1" vertex="1">
          <mxGeometry x="1670" y="349" width="80" height="80" as="geometry" />
        </mxCell>
        <mxCell id="La93wDOkN0sHbDGJkP_w-25" value="&amp;nbsp;POST/GET" style="text;html=1;align=center;verticalAlign=middle;whiteSpace=wrap;rounded=0;" parent="1" vertex="1">
          <mxGeometry x="1679" y="376" width="60" height="30" as="geometry" />
        </mxCell>
        <mxCell id="La93wDOkN0sHbDGJkP_w-29" value="" style="ellipse;whiteSpace=wrap;html=1;aspect=fixed;" parent="1" vertex="1">
          <mxGeometry x="1650" y="684" width="80" height="80" as="geometry" />
        </mxCell>
        <mxCell id="La93wDOkN0sHbDGJkP_w-30" value="Inserção" style="text;html=1;align=center;verticalAlign=middle;whiteSpace=wrap;rounded=0;" parent="1" vertex="1">
          <mxGeometry x="1659" y="711" width="60" height="30" as="geometry" />
        </mxCell>
        <mxCell id="UPGJ15EwpdqwtSzkW7iJ-3" value="Container" style="swimlane;" vertex="1" parent="1">
          <mxGeometry x="1470" y="259" width="450" height="240" as="geometry" />
        </mxCell>
        <mxCell id="UPGJ15EwpdqwtSzkW7iJ-18" value="&lt;div align=&quot;left&quot;&gt;Input 1: Adicionar Sensores&lt;/div&gt;&lt;div align=&quot;left&quot;&gt;&lt;br&gt;Input 2: Adicionar Alertas&lt;/div&gt;" style="text;html=1;align=left;verticalAlign=middle;whiteSpace=wrap;rounded=0;" vertex="1" parent="UPGJ15EwpdqwtSzkW7iJ-3">
          <mxGeometry x="35" y="91.5" width="110" height="77" as="geometry" />
        </mxCell>
        <mxCell id="UPGJ15EwpdqwtSzkW7iJ-4" value="Container" style="swimlane;" vertex="1" parent="1">
          <mxGeometry x="990" y="579" width="640" height="270" as="geometry" />
        </mxCell>
        <mxCell id="UPGJ15EwpdqwtSzkW7iJ-14" value="&lt;div align=&quot;left&quot;&gt;Publica dados do sensores:&lt;br&gt;&lt;ul&gt;&lt;li&gt;Radiação&lt;/li&gt;&lt;li&gt;Gases&lt;br&gt;&lt;/li&gt;&lt;/ul&gt;&lt;/div&gt;" style="text;html=1;align=left;verticalAlign=middle;whiteSpace=wrap;rounded=0;" vertex="1" parent="UPGJ15EwpdqwtSzkW7iJ-4">
          <mxGeometry x="34" y="123" width="80" height="67" as="geometry" />
        </mxCell>
        <mxCell id="La93wDOkN0sHbDGJkP_w-10" value="Publisher" style="shape=umlFrame;whiteSpace=wrap;html=1;rounded=0;shadow=0;comic=0;labelBackgroundColor=none;strokeWidth=1;fontFamily=Verdana;fontSize=10;align=center;width=60;height=30;" parent="UPGJ15EwpdqwtSzkW7iJ-4" vertex="1">
          <mxGeometry x="20" y="45" width="160" height="200" as="geometry" />
        </mxCell>
        <mxCell id="La93wDOkN0sHbDGJkP_w-21" value="&lt;font style=&quot;font-size: 12px;&quot;&gt;Paho-Go&lt;/font&gt;" style="text;strokeColor=none;fillColor=none;align=left;verticalAlign=middle;spacingLeft=4;spacingRight=4;overflow=hidden;points=[[0,0.5],[1,0.5]];portConstraint=eastwest;rotatable=0;whiteSpace=wrap;html=1;" parent="UPGJ15EwpdqwtSzkW7iJ-4" vertex="1">
          <mxGeometry x="90" y="55.5" width="70" height="21" as="geometry" />
        </mxCell>
        <mxCell id="UPGJ15EwpdqwtSzkW7iJ-46" value="Broker (HiveMQ)" style="swimlane;whiteSpace=wrap;html=1;" vertex="1" parent="UPGJ15EwpdqwtSzkW7iJ-4">
          <mxGeometry x="243" y="60" width="130" height="150" as="geometry" />
        </mxCell>
        <mxCell id="La93wDOkN0sHbDGJkP_w-22" value="" style="ellipse;whiteSpace=wrap;html=1;aspect=fixed;" parent="UPGJ15EwpdqwtSzkW7iJ-46" vertex="1">
          <mxGeometry x="20" y="41" width="90" height="90" as="geometry" />
        </mxCell>
        <mxCell id="La93wDOkN0sHbDGJkP_w-20" value="Publica em tópicos de cada tipo de sensor" style="text;html=1;align=center;verticalAlign=middle;whiteSpace=wrap;rounded=0;" parent="UPGJ15EwpdqwtSzkW7iJ-46" vertex="1">
          <mxGeometry x="35" y="17.5" width="60" height="137" as="geometry" />
        </mxCell>
        <mxCell id="UPGJ15EwpdqwtSzkW7iJ-5" value="Container" style="swimlane;" vertex="1" parent="1">
          <mxGeometry x="2050" y="219" width="200" height="620" as="geometry" />
        </mxCell>
        <mxCell id="La93wDOkN0sHbDGJkP_w-34" style="edgeStyle=orthogonalEdgeStyle;rounded=0;orthogonalLoop=1;jettySize=auto;html=1;entryX=0.495;entryY=-0.012;entryDx=0;entryDy=0;entryPerimeter=0;" parent="UPGJ15EwpdqwtSzkW7iJ-5" edge="1">
          <mxGeometry relative="1" as="geometry">
            <mxPoint x="60" y="261" as="sourcePoint" />
            <mxPoint x="58.00999999999976" y="404.9999999999999" as="targetPoint" />
            <Array as="points">
              <mxPoint x="60" y="256" />
              <mxPoint x="60" y="331" />
              <mxPoint x="58" y="331" />
            </Array>
          </mxGeometry>
        </mxCell>
        <mxCell id="UPGJ15EwpdqwtSzkW7iJ-34" value="Tabelas:&lt;br&gt;&lt;div align=&quot;left&quot;&gt;&lt;ul&gt;&lt;li&gt;alerts&lt;/li&gt;&lt;li&gt;gases&lt;/li&gt;&lt;li&gt;radiation&lt;/li&gt;&lt;li&gt;sensors&lt;br&gt;&lt;/li&gt;&lt;/ul&gt;&lt;/div&gt;" style="text;html=1;align=center;verticalAlign=middle;whiteSpace=wrap;rounded=0;" vertex="1" parent="UPGJ15EwpdqwtSzkW7iJ-5">
          <mxGeometry x="20" y="121" width="95" height="97" as="geometry" />
        </mxCell>
        <mxCell id="UPGJ15EwpdqwtSzkW7iJ-9" style="edgeStyle=orthogonalEdgeStyle;rounded=0;orthogonalLoop=1;jettySize=auto;html=1;entryX=0.003;entryY=0.522;entryDx=0;entryDy=0;entryPerimeter=0;" edge="1" parent="1" source="La93wDOkN0sHbDGJkP_w-5" target="La93wDOkN0sHbDGJkP_w-7">
          <mxGeometry relative="1" as="geometry" />
        </mxCell>
        <mxCell id="La93wDOkN0sHbDGJkP_w-26" value="" style="ellipse;whiteSpace=wrap;html=1;aspect=fixed;" parent="1" vertex="1">
          <mxGeometry x="1960" y="686" width="80" height="80" as="geometry" />
        </mxCell>
        <mxCell id="La93wDOkN0sHbDGJkP_w-28" value="Connection String" style="text;html=1;align=center;verticalAlign=middle;whiteSpace=wrap;rounded=0;" parent="1" vertex="1">
          <mxGeometry x="1970" y="713" width="60" height="30" as="geometry" />
        </mxCell>
        <mxCell id="UPGJ15EwpdqwtSzkW7iJ-13" value="" style="shape=card;whiteSpace=wrap;html=1;size=20;" vertex="1" parent="1">
          <mxGeometry x="2220" y="849" width="60" height="33" as="geometry" />
        </mxCell>
        <mxCell id="UPGJ15EwpdqwtSzkW7iJ-12" value="AWS" style="text;html=1;align=center;verticalAlign=middle;whiteSpace=wrap;rounded=0;" vertex="1" parent="1">
          <mxGeometry x="2220" y="850.5" width="60" height="30" as="geometry" />
        </mxCell>
        <mxCell id="UPGJ15EwpdqwtSzkW7iJ-15" value="Consome e coloca em fila os eventos" style="text;html=1;align=center;verticalAlign=middle;whiteSpace=wrap;rounded=0;" vertex="1" parent="1">
          <mxGeometry x="1490" y="741" width="80" height="54" as="geometry" />
        </mxCell>
        <mxCell id="UPGJ15EwpdqwtSzkW7iJ-16" value="Coleções:&lt;br&gt;&lt;div align=&quot;left&quot;&gt;&lt;ul&gt;&lt;li&gt;alerts&lt;/li&gt;&lt;li&gt;gases&lt;/li&gt;&lt;li&gt;radiation&lt;/li&gt;&lt;li&gt;sensors&lt;br&gt;&lt;/li&gt;&lt;/ul&gt;&lt;/div&gt;" style="text;html=1;align=center;verticalAlign=middle;whiteSpace=wrap;rounded=0;" vertex="1" parent="1">
          <mxGeometry x="1770" y="689" width="110" height="88" as="geometry" />
        </mxCell>
        <mxCell id="UPGJ15EwpdqwtSzkW7iJ-19" value="Dashboards:&lt;br&gt;&lt;div align=&quot;left&quot;&gt;&lt;ul&gt;&lt;li&gt;alerts&lt;/li&gt;&lt;li&gt;gases&lt;/li&gt;&lt;li&gt;radiation&lt;/li&gt;&lt;li&gt;sensors&lt;br&gt;&lt;/li&gt;&lt;/ul&gt;&lt;/div&gt;" style="text;html=1;align=center;verticalAlign=middle;whiteSpace=wrap;rounded=0;" vertex="1" parent="1">
          <mxGeometry x="2070" y="684" width="110" height="88" as="geometry" />
        </mxCell>
        <mxCell id="UPGJ15EwpdqwtSzkW7iJ-20" value="Confluent" style="text;html=1;align=center;verticalAlign=middle;whiteSpace=wrap;rounded=0;" vertex="1" parent="1">
          <mxGeometry x="1510" y="618" width="80" height="54" as="geometry" />
        </mxCell>
        <mxCell id="UPGJ15EwpdqwtSzkW7iJ-21" value="MongoDB" style="text;html=1;align=center;verticalAlign=middle;whiteSpace=wrap;rounded=0;" vertex="1" parent="1">
          <mxGeometry x="1834" y="638" width="110" height="19" as="geometry" />
        </mxCell>
        <mxCell id="UPGJ15EwpdqwtSzkW7iJ-22" value="Metabase" style="text;html=1;align=center;verticalAlign=middle;whiteSpace=wrap;rounded=0;" vertex="1" parent="1">
          <mxGeometry x="2171" y="632" width="50" height="17" as="geometry" />
        </mxCell>
        <mxCell id="UPGJ15EwpdqwtSzkW7iJ-23" value="PostGreSQL" style="text;html=1;align=center;verticalAlign=middle;whiteSpace=wrap;rounded=0;" vertex="1" parent="1">
          <mxGeometry x="2120" y="249" width="110" height="88" as="geometry" />
        </mxCell>
        <mxCell id="UPGJ15EwpdqwtSzkW7iJ-24" value="Golang" style="text;html=1;align=center;verticalAlign=middle;whiteSpace=wrap;rounded=0;" vertex="1" parent="1">
          <mxGeometry x="1825" y="264" width="110" height="88" as="geometry" />
        </mxCell>
        <mxCell id="UPGJ15EwpdqwtSzkW7iJ-25" value="React" style="text;html=1;align=center;verticalAlign=middle;whiteSpace=wrap;rounded=0;" vertex="1" parent="1">
          <mxGeometry x="1537" y="264" width="110" height="88" as="geometry" />
        </mxCell>
        <mxCell id="UPGJ15EwpdqwtSzkW7iJ-30" style="edgeStyle=orthogonalEdgeStyle;rounded=0;orthogonalLoop=1;jettySize=auto;html=1;entryX=0.502;entryY=1.001;entryDx=0;entryDy=0;entryPerimeter=0;" edge="1" parent="1">
          <mxGeometry relative="1" as="geometry">
            <mxPoint x="2190" y="623.9999999999999" as="sourcePoint" />
            <mxPoint x="2190.3599999999997" y="476.19999999999993" as="targetPoint" />
          </mxGeometry>
        </mxCell>
        <mxCell id="La93wDOkN0sHbDGJkP_w-35" value="" style="ellipse;whiteSpace=wrap;html=1;aspect=fixed;" parent="1" vertex="1">
          <mxGeometry x="2150" y="504" width="80" height="80" as="geometry" />
        </mxCell>
        <mxCell id="La93wDOkN0sHbDGJkP_w-36" value="Inserção" style="text;html=1;align=center;verticalAlign=middle;whiteSpace=wrap;rounded=0;" parent="1" vertex="1">
          <mxGeometry x="2160" y="529" width="60" height="30" as="geometry" />
        </mxCell>
        <mxCell id="UPGJ15EwpdqwtSzkW7iJ-32" value="" style="ellipse;whiteSpace=wrap;html=1;aspect=fixed;" vertex="1" parent="1">
          <mxGeometry x="2068" y="505" width="80" height="80" as="geometry" />
        </mxCell>
        <mxCell id="UPGJ15EwpdqwtSzkW7iJ-33" value="Lê" style="text;html=1;align=center;verticalAlign=middle;whiteSpace=wrap;rounded=0;" vertex="1" parent="1">
          <mxGeometry x="2078" y="530" width="60" height="30" as="geometry" />
        </mxCell>
        <mxCell id="UPGJ15EwpdqwtSzkW7iJ-35" value="&lt;div align=&quot;left&quot;&gt;type 1: Sensor&lt;/div&gt;&lt;div align=&quot;left&quot;&gt;&lt;br&gt;type 2: Alerta&lt;/div&gt;" style="text;html=1;align=left;verticalAlign=middle;whiteSpace=wrap;rounded=0;" vertex="1" parent="1">
          <mxGeometry x="1789" y="329" width="110" height="71" as="geometry" />
        </mxCell>
        <mxCell id="UPGJ15EwpdqwtSzkW7iJ-36" value="&amp;nbsp;Conecta ao DB, envia e recebe dados" style="text;html=1;align=left;verticalAlign=middle;whiteSpace=wrap;rounded=0;" vertex="1" parent="1">
          <mxGeometry x="1789" y="400" width="110" height="71" as="geometry" />
        </mxCell>
        <mxCell id="UPGJ15EwpdqwtSzkW7iJ-40" value="" style="group" vertex="1" connectable="0" parent="1">
          <mxGeometry x="1846" y="514" width="80" height="80" as="geometry" />
        </mxCell>
        <mxCell id="La93wDOkN0sHbDGJkP_w-13" style="edgeStyle=orthogonalEdgeStyle;rounded=0;orthogonalLoop=1;jettySize=auto;html=1;entryX=0.466;entryY=-0.011;entryDx=0;entryDy=0;entryPerimeter=0;" parent="UPGJ15EwpdqwtSzkW7iJ-40" edge="1">
          <mxGeometry relative="1" as="geometry">
            <mxPoint x="39.00000000000023" y="-25.000000000000114" as="sourcePoint" />
            <mxPoint x="38.559999999999945" y="111.80000000000007" as="targetPoint" />
          </mxGeometry>
        </mxCell>
        <mxCell id="La93wDOkN0sHbDGJkP_w-31" value="" style="ellipse;whiteSpace=wrap;html=1;aspect=fixed;" parent="UPGJ15EwpdqwtSzkW7iJ-40" vertex="1">
          <mxGeometry width="80" height="80" as="geometry" />
        </mxCell>
        <mxCell id="La93wDOkN0sHbDGJkP_w-33" value="Inserção" style="text;html=1;align=center;verticalAlign=middle;whiteSpace=wrap;rounded=0;" parent="UPGJ15EwpdqwtSzkW7iJ-40" vertex="1">
          <mxGeometry x="10" y="25" width="60" height="30" as="geometry" />
        </mxCell>
        <mxCell id="UPGJ15EwpdqwtSzkW7iJ-42" style="edgeStyle=orthogonalEdgeStyle;rounded=0;orthogonalLoop=1;jettySize=auto;html=1;entryX=0.537;entryY=0.998;entryDx=0;entryDy=0;entryPerimeter=0;" edge="1" parent="1">
          <mxGeometry relative="1" as="geometry">
            <mxPoint x="1799.2100000000003" y="628.4" as="sourcePoint" />
            <mxPoint x="1799.02" y="488.9999999999999" as="targetPoint" />
          </mxGeometry>
        </mxCell>
        <mxCell id="UPGJ15EwpdqwtSzkW7iJ-39" value="" style="group" vertex="1" connectable="0" parent="1">
          <mxGeometry x="1758" y="515" width="80" height="80" as="geometry" />
        </mxCell>
        <mxCell id="UPGJ15EwpdqwtSzkW7iJ-37" value="" style="ellipse;whiteSpace=wrap;html=1;aspect=fixed;" vertex="1" parent="UPGJ15EwpdqwtSzkW7iJ-39">
          <mxGeometry width="80" height="80" as="geometry" />
        </mxCell>
        <mxCell id="UPGJ15EwpdqwtSzkW7iJ-38" value="Lê" style="text;html=1;align=center;verticalAlign=middle;whiteSpace=wrap;rounded=0;" vertex="1" parent="UPGJ15EwpdqwtSzkW7iJ-39">
          <mxGeometry x="10" y="25" width="60" height="30" as="geometry" />
        </mxCell>
        <mxCell id="UPGJ15EwpdqwtSzkW7iJ-43" value="Subscriber/Listener" style="text;html=1;align=center;verticalAlign=middle;whiteSpace=wrap;rounded=0;" vertex="1" parent="1">
          <mxGeometry x="1490" y="672" width="80" height="38" as="geometry" />
        </mxCell>
        <mxCell id="UPGJ15EwpdqwtSzkW7iJ-44" value="" style="endArrow=classic;html=1;rounded=0;entryX=0.5;entryY=0;entryDx=0;entryDy=0;" edge="1" parent="1" source="UPGJ15EwpdqwtSzkW7iJ-43" target="UPGJ15EwpdqwtSzkW7iJ-15">
          <mxGeometry width="50" height="50" relative="1" as="geometry">
            <mxPoint x="1520" y="760" as="sourcePoint" />
            <mxPoint x="1570" y="710" as="targetPoint" />
          </mxGeometry>
        </mxCell>
      </root>
    </mxGraphModel>
  </diagram>
</mxfile>
